P3
100 50
255
0 0 0
0 0 0
0 0 0
0 0 0
0 0 0
0 0 0
0 0 0
0 0 0
0 0 0
0 0 0
0 0 0
0 0 0
0 0 0
0 0 0
0 0 0
0 0 0
0 0 0
0 0 0
0 0 0
0 0 0
0 0 0
0 0 0
0 0 0
0 0 0
0 0 0
0 0 0
0 0 0
0 0 0
0 0 0
0 0 0
0 0 0
0 0 0
0 0 0
0 0 0
0 0 0
0 0 0
0 0 0
0 0 0
0 0 0
0 0 0
0 0 0
0 0 0
0 0 0
0 0 0
0 0 0
0 0 0
0 0 0
0 0 0
0 0 0
0 0 0
0 0 0
0 0 0
0 0 0
0 0 0
0 0 0
0 0 0
0 0 0
0 0 0
0 0 0
0 0 0
0 0 0
0 0 0
0 0 0
0 0 0
0 0 0
0 0 0
0 0 0
0 0 0
0 0 0
0 0 0
0 0 0
0 0 0
0 0 0
0 0 0
0 0 0
0 0 0
0 0 0
0 0 0
0 0 0
0 0 0
0 0 0
0 0 0
0 0 0
0 0 0
0 0 0
0 0 0
0 0 0
0 0 0
0 0 0
0 0 0
0 0 0
0 0 0
0 0 0
0 0 0
0 0 0
0 0 0
0 0 0
0 0 0
0 0 0
0 0 0
0 0 0
0 0 0
0 0 0
0 0 0
0 0 0
0 0 0
0 0 0
0 0 0
0 0 0
0 0 0
0 0 0
0 0 0
0 0 0
0 0 0
0 0 0
0 0 0
0 0 0
0 0 0
0 0 0
0 0 0
0 0 0
0 0 0
0 0 0
0 0 0
0 0 0
0 0 0
0 0 0
0 0 0
0 0 0
0 0 0
0 0 0
0 0 0
0 0 0
0 0 0
0 0 0
0 0 0
0 0 0
0 0 0
0 0 0
0 0 0
0 0 0
0 0 0
0 0 0
0 0 0
0 0 0
0 0 0
0 0 0
0 0 0
0 0 0
0 0 0
0 0 0
0 0 0
0 0 0
0 0 0
0 0 0
0 0 0
0 0 0
0 0 0
0 0 0
0 0 0
0 0 0
0 0 0
0 0 0
0 0 0
0 0 0
0 0 0
0 0 0
0 0 0
0 0 0
0 0 0
0 0 0
0 0 0
0 0 0
0 0 0
0 0 0
0 0 0
0 0 0
0 0 0
0 0 0
0 0 0
0 0 0
0 0 0
0 0 0
0 0 0
0 0 0
0 0 0
0 0 0
0 0 0
0 0 0
0 0 0
0 0 0
0 0 0
0 0 0
0 0 0
0 0 0
0 0 0
0 0 0
0 0 0
0 0 0
0 0 0
0 0 0
0 0 0
0 0 0
0 0 0
0 0 0
0 0 0
0 0 0
0 0 0
0 0 0
0 0 0
0 0 0
0 0 0
0 0 0
0 0 0
0 0 0
0 0 0
0 0 0
0 0 0
0 0 0
0 0 0
0 0 0
0 0 0
0 0 0
0 0 0
0 0 0
0 0 0
0 0 0
0 0 0
0 0 0
0 0 0
0 0 0
0 0 0
0 0 0
0 0 0
0 0 0
0 0 0
0 0 0
0 0 0
0 0 0
0 0 0
0 0 0
0 0 0
0 0 0
0 0 0
0 0 0
0 0 0
0 0 0
0 0 0
0 0 0
0 0 0
0 0 0
0 0 0
0 0 0
0 0 0
0 0 0
0 0 0
0 0 0
0 0 0
0 0 0
0 0 0
0 0 0
0 0 0
0 0 0
0 0 0
0 0 0
0 0 0
0 0 0
0 0 0
0 0 0
0 0 0
0 0 0
0 0 0
0 0 0
0 0 0
0 0 0
0 0 0
0 0 0
0 0 0
0 0 0
0 0 0
0 0 0
0 0 0
0 0 0
0 0 0
0 0 0
0 0 0
0 0 0
0 0 0
0 0 0
0 0 0
0 0 0
0 0 0
0 0 0
0 0 0
0 0 0
0 0 0
0 0 0
0 0 0
0 0 0
0 0 0
0 0 0
0 0 0
0 0 0
0 0 0
0 0 0
0 0 0
0 0 0
0 0 0
0 0 0
0 0 0
0 0 0
0 0 0
0 0 0
0 0 0
0 0 0
0 0 0
0 0 0
0 0 0
0 0 0
0 0 0
0 0 0
0 0 0
0 0 0
0 0 0
0 0 0
0 0 0
0 0 0
0 0 0
0 0 0
0 0 0
0 0 0
0 0 0
0 0 0
0 0 0
0 0 0
0 0 0
0 0 0
0 0 0
0 0 0
0 0 0
0 0 0
0 0 0
0 0 0
0 0 0
0 0 0
0 0 0
0 0 0
0 0 0
0 0 0
0 0 0
0 0 0
0 0 0
0 0 0
0 0 0
0 0 0
0 0 0
0 0 0
0 0 0
0 0 0
0 0 0
0 0 0
0 0 0
0 0 0
0 0 0
0 0 0
0 0 0
0 0 0
0 0 0
0 0 0
0 0 0
0 0 0
0 0 0
0 0 0
0 0 0
0 0 0
0 0 0
0 0 0
0 0 0
0 0 0
0 0 0
0 0 0
0 0 0
0 0 0
0 0 0
0 0 0
0 0 0
0 0 0
0 0 0
0 0 0
0 0 0
0 0 0
0 0 0
0 0 0
0 0 0
0 0 0
0 0 0
0 0 0
0 0 0
0 0 0
0 0 0
0 0 0
0 0 0
0 0 0
0 0 0
0 0 0
0 0 0
0 0 0
0 0 0
0 0 0
0 0 0
0 0 0
0 0 0
0 0 0
0 0 0
0 0 0
0 0 0
0 0 0
0 0 0
0 0 0
0 0 0
0 0 0
0 0 0
0 0 0
0 0 0
0 0 0
0 0 0
0 0 0
0 0 0
0 0 0
0 0 0
0 0 0
0 0 0
0 0 0
0 0 0
0 0 0
0 0 0
0 0 0
0 0 0
0 0 0
0 0 0
0 0 0
0 0 0
0 0 0
0 0 0
0 0 0
0 0 0
0 0 0
0 0 0
0 0 0
0 0 0
0 0 0
0 0 0
0 0 0
0 0 0
0 0 0
0 0 0
0 0 0
0 0 0
0 0 0
0 0 0
0 0 0
0 0 0
0 0 0
0 0 0
0 0 0
0 0 0
0 0 0
0 0 0
0 0 0
0 0 0
0 0 0
0 0 0
0 0 0
0 0 0
0 0 0
0 0 0
0 0 0
0 0 0
0 0 0
0 0 0
0 0 0
0 0 0
0 0 0
0 0 0
0 0 0
0 0 0
0 0 0
0 0 0
0 0 0
0 0 0
0 0 0
0 0 0
0 0 0
0 0 0
0 0 0
0 0 0
0 0 0
0 0 0
0 0 0
0 0 0
0 0 0
0 0 0
0 0 0
0 0 0
0 0 0
0 0 0
0 0 0
0 0 0
0 0 0
0 0 0
0 0 0
0 0 0
0 0 0
0 0 0
0 0 0
0 0 0
0 0 0
0 0 0
0 0 0
0 0 0
0 0 0
0 0 0
0 0 0
0 0 0
0 0 0
0 0 0
0 0 0
0 0 0
0 0 0
0 0 0
0 0 0
0 0 0
0 0 0
0 0 0
0 0 0
0 0 0
0 0 0
0 0 0
0 0 0
0 0 0
0 0 0
0 0 0
0 0 0
0 0 0
0 0 0
0 0 0
0 0 0
0 0 0
0 0 0
0 0 0
0 0 0
0 0 0
0 0 0
0 0 0
0 0 0
0 0 0
0 0 0
0 0 0
0 0 0
0 0 0
0 0 0
0 0 0
0 0 0
0 0 0
0 0 0
0 0 0
0 0 0
0 0 0
0 0 0
0 0 0
0 0 0
0 0 0
0 0 0
0 0 0
0 0 0
0 0 0
0 0 0
0 0 0
0 0 0
0 0 0
0 0 0
0 0 0
0 0 0
0 0 0
0 0 0
0 0 0
0 0 0
0 0 0
0 0 0
0 0 0
0 0 0
0 0 0
0 0 0
0 0 0
0 0 0
0 0 0
0 0 0
0 0 0
0 0 0
0 0 0
0 0 0
0 0 0
0 0 0
0 0 0
0 0 0
0 0 0
0 0 0
0 0 0
0 0 0
0 0 0
0 0 0
0 0 0
0 0 0
0 0 0
0 0 0
0 0 0
0 0 0
0 0 0
0 0 0
0 0 0
0 0 0
0 0 0
0 0 0
0 0 0
0 0 0
0 0 0
0 0 0
0 0 0
0 0 0
0 0 0
0 0 0
0 0 0
0 0 0
0 0 0
0 0 0
0 0 0
0 0 0
0 0 0
0 0 0
0 0 0
0 0 0
0 0 0
0 0 0
0 0 0
0 0 0
0 0 0
0 0 0
0 0 0
0 0 0
0 0 0
0 0 0
0 0 0
0 0 0
0 0 0
0 0 0
0 0 0
0 0 0
0 0 0
0 0 0
0 0 0
0 0 0
0 0 0
0 0 0
0 0 0
0 0 0
0 0 0
0 0 0
0 0 0
0 0 0
0 0 0
0 0 0
0 0 0
0 0 0
0 0 0
0 0 0
0 0 0
0 0 0
0 0 0
0 0 0
0 0 0
0 0 0
0 0 0
0 0 0
0 0 0
0 0 0
0 0 0
0 0 0
0 0 0
0 0 0
0 0 0
0 0 0
0 0 0
0 0 0
0 0 0
0 0 0
0 0 0
0 0 0
0 0 0
0 0 0
0 0 0
0 0 0
0 0 0
0 0 0
0 0 0
0 0 0
0 0 0
0 0 0
0 0 0
0 0 0
0 0 0
0 0 0
0 0 0
0 0 0
0 0 0
0 0 0
0 0 0
0 0 0
0 0 0
0 0 0
0 0 0
0 0 0
0 0 0
0 0 0
0 0 0
0 0 0
0 0 0
0 0 0
0 0 0
0 0 0
0 0 0
0 0 0
0 0 0
0 0 0
0 0 0
0 0 0
0 0 0
0 0 0
0 0 0
0 0 0
0 0 0
0 0 0
0 0 0
0 0 0
0 0 0
0 0 0
0 0 0
0 0 0
0 0 0
0 0 0
0 0 0
0 0 0
0 0 0
0 0 0
0 0 0
0 0 0
0 0 0
0 0 0
0 0 0
0 0 0
0 0 0
0 0 0
0 0 0
0 0 0
0 0 0
0 0 0
0 0 0
0 0 0
0 0 0
0 0 0
0 0 0
0 0 0
0 0 0
0 0 0
0 0 0
0 0 0
0 0 0
0 0 0
0 0 0
0 0 0
0 0 0
0 0 0
0 0 0
0 0 0
0 0 0
0 0 0
0 0 0
0 0 0
0 0 0
0 0 0
0 0 0
0 0 0
0 0 0
0 0 0
0 0 0
0 0 0
0 0 0
0 0 0
0 0 0
0 0 0
0 0 0
0 0 0
0 0 0
0 0 0
0 0 0
0 0 0
0 0 0
0 0 0
0 0 0
0 0 0
0 0 0
0 0 0
0 0 0
0 0 0
0 0 0
0 0 0
0 0 0
0 0 0
0 0 0
0 0 0
0 0 0
0 0 0
0 0 0
0 0 0
0 0 0
0 0 0
0 0 0
0 0 0
0 0 0
0 0 0
0 0 0
0 0 0
0 0 0
0 0 0
0 0 0
0 0 0
0 0 0
0 0 0
0 0 0
0 0 0
0 0 0
14 143 71
13 139 69
13 132 66
12 121 60
0 0 0
0 0 0
0 0 0
0 0 0
0 0 0
0 0 0
0 0 0
0 0 0
0 0 0
0 0 0
0 0 0
0 0 0
0 0 0
0 0 0
0 0 0
0 0 0
0 0 0
0 0 0
0 0 0
0 0 0
0 0 0
0 0 0
0 0 0
0 0 0
0 0 0
0 0 0
0 0 0
0 0 0
0 0 0
0 0 0
0 0 0
0 0 0
0 0 0
0 0 0
0 0 0
0 0 0
0 0 0
0 0 0
0 0 0
0 0 0
0 0 0
0 0 0
0 0 0
0 0 0
0 0 0
0 0 0
0 0 0
0 0 0
0 0 0
0 0 0
0 0 0
0 0 0
0 0 0
0 0 0
0 0 0
0 0 0
0 0 0
0 0 0
0 0 0
0 0 0
0 0 0
0 0 0
0 0 0
0 0 0
0 0 0
0 0 0
0 0 0
0 0 0
0 0 0
0 0 0
0 0 0
0 0 0
0 0 0
0 0 0
0 0 0
0 0 0
0 0 0
0 0 0
0 0 0
0 0 0
0 0 0
0 0 0
0 0 0
0 0 0
0 0 0
0 0 0
0 0 0
0 0 0
0 0 0
0 0 0
0 0 0
0 0 0
17 171 85
17 172 86
17 170 85
16 166 83
16 161 80
15 155 77
14 148 74
14 140 70
13 131 65
12 120 60
10 108 54
9 91 45
0 0 0
0 0 0
0 0 0
0 0 0
0 0 0
0 0 0
0 0 0
0 0 0
0 0 0
0 0 0
0 0 0
0 0 0
0 0 0
0 0 0
0 0 0
0 0 0
0 0 0
0 0 0
0 0 0
0 0 0
0 0 0
0 0 0
0 0 0
0 0 0
0 0 0
0 0 0
0 0 0
0 0 0
0 0 0
0 0 0
0 0 0
0 0 0
0 0 0
0 0 0
0 0 0
0 0 0
0 0 0
0 0 0
0 0 0
0 0 0
0 0 0
0 0 0
0 0 0
0 0 0
0 0 0
0 0 0
0 0 0
0 0 0
0 0 0
0 0 0
0 0 0
0 0 0
0 0 0
0 0 0
0 0 0
0 0 0
0 0 0
0 0 0
0 0 0
0 0 0
0 0 0
0 0 0
0 0 0
0 0 0
0 0 0
0 0 0
0 0 0
0 0 0
0 0 0
0 0 0
0 0 0
0 0 0
0 0 0
0 0 0
0 0 0
0 0 0
0 0 0
0 0 0
0 0 0
0 0 0
0 0 0
0 0 0
0 0 0
0 0 0
0 0 0
0 0 0
18 183 91
18 185 92
18 184 92
18 181 90
17 177 88
17 172 86
16 167 83
16 160 80
15 153 76
14 146 73
13 138 69
12 129 64
11 119 59
10 107 53
9 93 46
7 74 37
0 0 0
0 0 0
0 0 0
0 0 0
0 0 0
0 0 0
0 0 0
0 0 0
0 0 0
0 0 0
0 0 0
0 0 0
0 0 0
0 0 0
0 0 0
0 0 0
0 0 0
0 0 0
0 0 0
0 0 0
0 0 0
0 0 0
0 0 0
0 0 0
0 0 0
0 0 0
0 0 0
0 0 0
0 0 0
0 0 0
0 0 0
0 0 0
0 0 0
0 0 0
0 0 0
0 0 0
0 0 0
0 0 0
0 0 0
0 0 0
0 0 0
0 0 0
0 0 0
0 0 0
0 0 0
0 0 0
0 0 0
0 0 0
0 0 0
0 0 0
0 0 0
0 0 0
0 0 0
0 0 0
0 0 0
0 0 0
0 0 0
0 0 0
0 0 0
0 0 0
0 0 0
0 0 0
0 0 0
0 0 0
0 0 0
0 0 0
0 0 0
0 0 0
0 0 0
0 0 0
0 0 0
0 0 0
0 0 0
0 0 0
0 0 0
0 0 0
0 0 0
0 0 0
0 0 0
0 0 0
0 0 0
0 0 0
18 183 91
19 192 96
19 193 96
19 191 95
18 188 94
18 185 92
18 180 90
17 175 87
16 169 84
16 163 81
15 156 78
14 149 74
14 141 70
13 133 66
12 123 61
11 113 56
10 102 51
8 88 44
7 72 36
0 0 0
0 0 0
0 0 0
0 0 0
0 0 0
0 0 0
0 0 0
0 0 0
0 0 0
0 0 0
0 0 0
0 0 0
0 0 0
0 0 0
0 0 0
0 0 0
0 0 0
0 0 0
0 0 0
0 0 0
0 0 0
0 0 0
0 0 0
0 0 0
0 0 0
0 0 0
0 0 0
0 0 0
0 0 0
0 0 0
0 0 0
0 0 0
0 0 0
0 0 0
0 0 0
0 0 0
0 0 0
0 0 0
0 0 0
0 0 0
0 0 0
0 0 0
0 0 0
0 0 0
0 0 0
0 0 0
0 0 0
0 0 0
0 0 0
0 0 0
0 0 0
0 0 0
0 0 0
0 0 0
0 0 0
0 0 0
0 0 0
0 0 0
0 0 0
0 0 0
0 0 0
0 0 0
0 0 0
0 0 0
0 0 0
0 0 0
0 0 0
0 0 0
0 0 0
0 0 0
0 0 0
0 0 0
0 0 0
0 0 0
0 0 0
0 0 0
0 0 0
0 0 0
0 0 0
0 0 0
19 191 95
19 197 98
19 198 99
19 196 98
19 194 97
19 190 95
18 186 93
18 181 90
17 176 88
17 170 85
16 164 82
15 158 79
15 150 75
14 143 71
13 135 67
12 126 63
11 116 58
10 106 53
9 94 47
8 81 40
6 64 32
3 39 19
0 0 0
0 0 0
0 0 0
0 0 0
0 0 0
0 0 0
0 0 0
0 0 0
0 0 0
0 0 0
0 0 0
0 0 0
0 0 0
0 0 0
0 0 0
0 0 0
0 0 0
0 0 0
0 0 0
0 0 0
0 0 0
0 0 0
0 0 0
0 0 0
0 0 0
0 0 0
0 0 0
0 0 0
0 0 0
0 0 0
0 0 0
0 0 0
0 0 0
0 0 0
0 0 0
0 0 0
0 0 0
0 0 0
0 0 0
0 0 0
0 0 0
0 0 0
0 0 0
0 0 0
0 0 0
0 0 0
0 0 0
0 0 0
0 0 0
0 0 0
0 0 0
0 0 0
0 0 0
0 0 0
0 0 0
0 0 0
0 0 0
0 0 0
0 0 0
0 0 0
0 0 0
0 0 0
0 0 0
0 0 0
0 0 0
0 0 0
0 0 0
0 0 0
0 0 0
0 0 0
0 0 0
0 0 0
0 0 0
0 0 0
0 0 0
0 0 0
0 0 0
19 193 96
20 200 100
20 201 100
20 200 100
19 198 99
19 195 97
19 191 95
18 186 93
18 182 91
17 176 88
17 170 85
16 164 82
15 158 79
15 151 75
14 143 71
13 135 67
12 127 63
11 118 59
10 108 54
9 97 48
8 85 42
7 71 35
5 54 27
2 27 13
0 0 0
0 0 0
0 0 0
0 0 0
0 0 0
0 0 0
0 0 0
0 0 0
0 0 0
0 0 0
0 0 0
0 0 0
0 0 0
0 0 0
0 0 0
0 0 0
0 0 0
0 0 0
0 0 0
0 0 0
0 0 0
0 0 0
0 0 0
0 0 0
0 0 0
0 0 0
0 0 0
0 0 0
0 0 0
0 0 0
0 0 0
0 0 0
0 0 0
0 0 0
0 0 0
0 0 0
0 0 0
0 0 0
0 0 0
0 0 0
0 0 0
0 0 0
0 0 0
0 0 0
0 0 0
0 0 0
0 0 0
0 0 0
0 0 0
0 0 0
0 0 0
0 0 0
0 0 0
0 0 0
0 0 0
0 0 0
0 0 0
0 0 0
0 0 0
0 0 0
0 0 0
0 0 0
0 0 0
0 0 0
0 0 0
0 0 0
0 0 0
0 0 0
0 0 0
0 0 0
0 0 0
0 0 0
0 0 0
0 0 0
0 0 0
19 191 95
20 201 100
20 203 101
20 202 101
20 200 100
19 198 99
19 194 97
19 190 95
18 186 93
18 181 90
17 175 87
17 170 85
16 164 82
15 157 78
15 150 75
14 143 71
13 135 67
12 127 63
11 118 59
10 108 54
9 98 49
8 87 43
7 74 37
5 59 29
4 41 20
2 25 12
0 0 0
0 0 0
0 0 0
0 0 0
0 0 0
0 0 0
0 0 0
0 0 0
0 0 0
0 0 0
0 0 0
0 0 0
0 0 0
0 0 0
0 0 0
0 0 0
0 0 0
0 0 0
0 0 0
0 0 0
0 0 0
0 0 0
0 0 0
0 0 0
0 0 0
0 0 0
0 0 0
0 0 0
0 0 0
0 0 0
0 0 0
0 0 0
0 0 0
0 0 0
0 0 0
0 0 0
0 0 0
0 0 0
0 0 0
0 0 0
0 0 0
0 0 0
0 0 0
0 0 0
0 0 0
0 0 0
0 0 0
0 0 0
0 0 0
0 0 0
0 0 0
0 0 0
0 0 0
0 0 0
0 0 0
0 0 0
0 0 0
0 0 0
0 0 0
0 0 0
0 0 0
0 0 0
0 0 0
0 0 0
0 0 0
0 0 0
0 0 0
0 0 0
0 0 0
0 0 0
0 0 0
0 0 0
0 0 0
0 0 0
20 200 100
20 203 101
20 203 101
20 202 101
20 200 100
19 197 98
19 193 96
18 189 94
18 184 92
17 179 89
17 174 87
16 168 84
16 162 81
15 156 78
14 149 74
14 142 71
13 134 67
12 126 63
11 117 58
10 108 54
9 98 49
8 87 43
7 75 37
6 62 31
4 46 23
2 25 12
0 0 0
0 0 0
0 0 0
0 0 0
0 0 0
0 0 0
0 0 0
0 0 0
0 0 0
0 0 0
0 0 0
0 0 0
0 0 0
0 0 0
0 0 0
0 0 0
0 0 0
0 0 0
0 0 0
0 0 0
0 0 0
0 0 0
0 0 0
0 0 0
0 0 0
0 0 0
0 0 0
0 0 0
0 0 0
0 0 0
0 0 0
0 0 0
0 0 0
0 0 0
0 0 0
0 0 0
0 0 0
0 0 0
0 0 0
0 0 0
0 0 0
0 0 0
0 0 0
0 0 0
0 0 0
27 24 24
27 24 24
27 24 24
27 24 24
27 24 24
27 24 24
27 24 24
27 24 24
27 24 24
27 24 24
27 24 24
27 24 24
27 24 24
27 24 24
27 24 24
27 24 24
27 24 24
27 24 24
27 24 24
27 24 24
27 24 24
27 24 24
27 24 24
27 24 24
27 24 24
27 24 24
27 24 24
27 24 24
19 195 97
20 202 101
20 203 101
20 203 101
20 201 100
19 198 99
19 195 97
19 191 95
18 187 93
18 182 91
17 177 88
17 172 86
16 166 83
16 160 80
15 154 77
14 147 73
14 140 70
13 132 66
12 124 62
11 116 58
10 107 53
9 97 48
8 87 43
7 75 37
6 63 31
4 48 24
3 31 15
2 25 12
27 24 24
27 24 24
27 24 24
27 24 24
27 24 24
27 24 24
27 24 24
27 24 24
27 24 24
27 24 24
27 24 24
27 24 24
27 24 24
27 24 24
27 24 24
27 24 24
27 24 24
27 24 24
27 24 24
27 24 24
27 24 24
27 24 24
27 24 24
27 24 24
27 24 24
27 24 24
27 24 24
27 24 24
27 24 24
27 24 24
27 24 24
27 24 24
27 24 24
27 24 24
27 24 24
27 24 24
27 24 24
27 24 24
27 24 24
27 24 24
27 24 24
27 24 24
27 24 24
27 24 24
42 38 38
42 38 38
42 38 38
42 38 38
42 38 38
42 38 38
42 38 38
43 38 38
43 38 38
43 38 38
43 38 38
43 38 38
43 38 38
43 39 39
43 39 39
43 39 39
43 39 39
43 39 39
43 39 39
43 39 39
43 39 39
43 39 39
43 39 39
43 39 39
43 39 39
43 39 39
43 39 39
18 180 90
19 198 99
20 202 101
20 202 101
20 201 100
19 199 99
19 196 98
19 193 96
18 189 94
18 185 92
18 180 90
17 175 87
17 170 85
16 164 82
15 158 79
15 151 75
14 145 72
13 138 69
13 130 65
12 122 61
11 114 57
10 105 52
9 96 48
8 86 43
7 75 37
6 62 31
4 49 24
3 33 16
2 25 12
44 39 39
44 39 39
43 39 39
43 39 39
43 39 39
43 39 39
43 39 39
43 39 39
43 39 39
43 39 39
43 39 39
43 39 39
43 39 39
43 39 39
43 39 39
43 39 39
43 38 38
43 38 38
43 38 38
43 38 38
43 38 38
43 38 38
42 38 38
42 38 38
42 38 38
42 38 38
42 38 38
42 38 38
42 38 38
42 38 38
42 38 38
42 38 38
42 38 38
42 37 37
42 37 37
42 37 37
41 37 37
41 37 37
41 37 37
41 37 37
41 37 37
41 37 37
41 37 37
41 37 37
57 51 51
57 51 51
57 51 51
57 51 51
57 52 52
57 52 52
58 52 52
58 52 52
58 52 52
58 52 52
58 52 52
58 52 52
58 52 52
58 52 52
58 52 52
58 52 52
58 52 52
58 53 53
59 53 53
59 53 53
59 53 53
59 53 53
59 53 53
59 53 53
59 53 53
59 53 53
59 53 53
19 191 95
19 198 99
20 200 100
20 200 100
19 199 99
19 197 98
19 194 97
19 190 95
25 193 99
34 198 107
19 179 90
17 172 86
16 167 83
16 161 80
15 155 77
14 149 74
14 142 71
13 135 67
12 128 64
12 120 60
11 112 56
10 103 51
9 94 47
8 84 42
7 73 36
6 61 30
4 48 24
3 33 16
2 25 12
2 25 12
58 52 52
58 52 52
58 52 52
58 52 52
58 52 52
58 52 52
58 52 52
58 52 52
58 52 52
57 52 52
57 52 52
57 51 51
57 51 51
57 51 51
57 51 51
57 51 51
57 51 51
57 51 51
56 51 51
56 51 51
56 51 51
56 50 50
56 50 50
56 50 50
56 50 50
56 50 50
55 50 50
55 50 50
55 50 50
55 50 50
55 49 49
55 49 49
55 49 49
55 49 49
54 49 49
54 49 49
54 49 49
54 49 49
54 48 48
54 48 48
54 48 48
53 48 48
53 48 48
71 64 64
71 64 64
71 64 64
71 64 64
72 64 64
72 64 64
72 65 65
72 65 65
72 65 65
72 65 65
72 65 65
72 65 65
72 65 65
72 65 65
72 65 65
73 65 65
73 65 65
73 65 65
73 65 65
73 65 65
73 65 65
73 65 65
73 66 66
73 66 66
73 66 66
73 66 66
73 66 66
19 192 96
19 197 98
19 198 99
19 198 99
19 196 98
19 194 97
19 191 95
20 189 95
65 231 139
73 234 145
20 177 90
16 169 84
16 164 82
15 158 79
15 152 76
14 146 73
13 139 69
13 132 66
12 125 62
11 117 58
10 109 54
10 100 50
9 91 45
8 81 40
7 71 35
5 59 29
4 46 23
3 32 16
2 25 12
2 25 12
71 64 64
71 64 64
71 64 64
71 64 64
71 64 64
70 63 63
70 63 63
70 63 63
70 63 63
70 63 63
70 63 63
70 63 63
69 62 62
69 62 62
69 62 62
69 62 62
69 62 62
69 62 62
68 62 62
68 61 61
68 61 61
68 61 61
68 61 61
68 61 61
67 61 61
67 60 60
67 60 60
67 60 60
67 60 60
67 60 60
66 60 60
66 59 59
66 59 59
66 59 59
66 59 59
65 59 59
65 59 59
65 58 58
65 58 58
65 58 58
64 58 58
64 58 58
64 58 58
84 76 76
84 76 76
84 76 76
84 76 76
85 76 76
85 76 76
85 76 76
85 76 76
85 76 76
85 76 76
85 77 77
85 77 77
85 77 77
85 77 77
85 77 77
85 77 77
85 77 77
85 77 77
85 77 77
85 77 77
85 77 77
85 77 77
85 77 77
85 77 77
85 77 77
85 77 77
17 175 87
19 190 95
19 194 97
19 195 97
19 194 97
19 193 96
19 190 95
18 187 93
19 185 93
36 198 108
29 187 99
17 171 85
16 165 82
16 160 80
15 154 77
14 148 74
14 142 71
13 136 68
12 129 64
12 121 60
11 114 57
10 106 53
9 97 48
8 88 44
7 78 39
6 68 34
5 57 28
4 44 22
3 30 15
2 25 12
2 25 12
82 74 74
82 74 74
82 74 74
82 74 74
82 73 73
81 73 73
81 73 73
81 73 73
81 73 73
81 73 73
81 72 72
80 72 72
80 72 72
80 72 72
80 72 72
80 72 72
79 71 71
79 71 71
79 71 71
79 71 71
78 71 71
78 70 70
78 70 70
78 70 70
78 70 70
77 70 70
77 69 69
77 69 69
77 69 69
76 69 69
76 69 69
76 68 68
76 68 68
76 68 68
75 68 68
75 68 68
75 67 67
75 67 67
74 67 67
74 67 67
74 67 67
74 66 66
74 66 66
96 86 86
96 86 86
96 87 87
96 87 87
96 87 87
96 87 87
96 87 87
97 87 87
97 87 87
97 87 87
97 87 87
97 87 87
97 87 87
97 87 87
97 87 87
97 87 87
97 87 87
97 87 87
97 87 87
97 87 87
97 87 87
97 87 87
97 87 87
97 87 87
97 87 87
96 87 87
17 177 88
18 188 94
19 191 95
19 192 96
19 191 95
18 189 94
18 186 93
18 183 91
18 180 90
18 176 88
17 171 86
16 167 83
16 162 81
15 156 78
15 151 75
14 145 72
13 138 69
13 132 66
12 125 62
11 118 59
11 110 55
10 102 51
9 93 46
8 84 42
7 75 37
6 65 32
5 53 26
4 41 20
2 28 14
2 25 12
2 25 12
2 25 12
92 83 83
92 82 82
91 82 82
91 82 82
91 82 82
91 82 82
90 81 81
90 81 81
90 81 81
90 81 81
90 81 81
89 80 80
89 80 80
89 80 80
89 80 80
88 80 80
88 79 79
88 79 79
88 79 79
87 79 79
87 78 78
87 78 78
87 78 78
86 78 78
86 78 78
86 77 77
86 77 77
85 77 77
85 77 77
85 76 76
85 76 76
84 76 76
84 76 76
84 75 75
84 75 75
83 75 75
83 75 75
83 75 75
83 74 74
82 74 74
82 74 74
82 74 74
107 96 96
107 96 96
107 96 96
107 96 96
107 96 96
107 96 96
107 96 96
107 96 96
107 96 96
107 96 96
107 96 96
107 96 96
107 96 96
107 96 96
107 96 96
107 96 96
107 96 96
107 96 96
107 96 96
106 96 96
106 96 96
106 96 96
106 96 96
106 96 96
106 95 95
106 95 95
17 175 87
18 184 92
18 187 93
18 187 93
18 187 93
18 185 92
18 182 91
17 179 89
17 175 87
17 171 85
16 167 83
16 162 81
15 157 78
15 152 76
14 146 73
14 140 70
13 134 67
12 128 64
12 121 60
11 114 57
10 106 53
9 98 49
9 90 45
8 81 40
7 71 35
6 61 30
5 50 25
3 38 19
2 25 12
2 25 12
2 25 12
2 25 12
100 90 90
100 90 90
100 90 90
99 89 89
99 89 89
99 89 89
99 89 89
98 88 88
98 88 88
98 88 88
98 88 88
97 88 88
97 87 87
97 87 87
97 87 87
96 87 87
96 86 86
96 86 86
95 86 86
95 86 86
95 85 85
95 85 85
94 85 85
94 85 85
94 84 84
94 84 84
93 84 84
93 84 84
93 83 83
92 83 83
92 83 83
92 83 83
92 82 82
91 82 82
91 82 82
91 82 82
90 81 81
90 81 81
90 81 81
90 81 81
89 80 80
89 80 80
116 104 104
116 104 104
116 104 104
116 104 104
116 104 104
116 104 104
116 104 104
116 104 104
116 104 104
116 104 104
116 104 104
116 104 104
115 104 104
115 104 104
115 104 104
115 104 104
115 104 104
115 104 104
115 103 103
115 103 103
115 103 103
115 103 103
115 103 103
114 103 103
114 103 103
114 103 103
17 172 86
18 180 90
18 182 91
18 183 91
18 182 91
18 180 90
17 178 89
17 174 87
17 171 85
16 167 83
16 163 81
15 158 79
15 153 76
14 148 74
14 142 71
13 136 68
13 130 65
12 123 61
11 116 58
10 109 54
10 102 51
9 94 47
8 85 42
7 76 38
6 67 33
5 57 28
4 46 23
3 34 17
2 25 12
2 25 12
2 25 12
2 25 12
107 96 96
107 96 96
107 96 96
106 96 96
106 96 96
106 95 95
106 95 95
105 95 95
105 95 95
105 94 94
105 94 94
104 94 94
104 94 94
104 93 93
103 93 93
103 93 93
103 92 92
103 92 92
102 92 92
102 92 92
102 91 91
101 91 91
101 91 91
101 91 91
100 90 90
100 90 90
100 90 90
100 90 90
99 89 89
99 89 89
99 89 89
98 89 89
98 88 88
98 88 88
98 88 88
97 87 87
97 87 87
97 87 87
96 87 87
96 86 86
96 86 86
96 86 86
124 111 111
124 111 111
124 111 111
124 111 111
124 111 111
124 111 111
124 111 111
123 111 111
123 111 111
123 111 111
123 111 111
123 111 111
123 111 111
123 111 111
123 110 110
123 110 110
123 110 110
122 110 110
122 110 110
122 110 110
122 110 110
122 110 110
122 109 109
122 109 109
121 109 109
121 109 109
16 166 83
17 174 87
17 177 88
17 178 89
17 177 88
17 175 87
17 173 86
16 169 84
16 166 83
16 162 81
15 158 79
15 153 76
14 148 74
14 143 71
13 137 68
13 131 65
12 125 62
11 119 59
11 112 56
10 104 52
9 97 48
8 89 44
8 81 40
7 72 36
6 62 31
5 52 26
4 41 20
2 29 14
2 25 12
2 25 12
2 25 12
2 25 12
113 102 102
113 102 102
113 102 102
113 101 101
112 101 101
112 101 101
112 100 100
111 100 100
111 100 100
111 100 100
111 99 99
110 99 99
110 99 99
110 99 99
109 98 98
109 98 98
109 98 98
108 98 98
108 97 97
108 97 97
108 97 97
107 96 96
107 96 96
107 96 96
106 96 96
106 95 95
106 95 95
105 95 95
105 95 95
105 94 94
104 94 94
104 94 94
104 93 93
104 93 93
103 93 93
103 93 93
103 92 92
102 92 92
102 92 92
102 92 92
101 91 91
101 91 91
131 118 118
131 118 118
131 117 117
130 117 117
130 117 117
130 117 117
130 117 117
130 117 117
130 117 117
130 117 117
130 117 117
130 117 117
129 116 116
129 116 116
129 116 116
129 116 116
129 116 116
129 116 116
129 116 116
128 115 115
128 115 115
128 115 115
128 115 115
128 115 115
127 115 115
127 114 114
16 160 80
16 168 84
17 171 85
17 172 86
17 171 85
17 170 85
16 167 83
16 164 82
16 161 80
15 157 78
15 152 76
14 148 74
14 143 71
13 138 69
13 132 66
12 126 63
12 120 60
11 113 56
10 107 53
9 99 49
9 92 46
8 84 42
7 75 37
6 67 33
5 57 28
4 47 23
3 36 18
2 25 12
2 25 12
2 25 12
2 25 12
2 25 12
119 107 107
119 107 107
118 106 106
118 106 106
118 106 106
117 106 106
117 105 105
117 105 105
116 105 105
116 104 104
116 104 104
115 104 104
115 104 104
115 103 103
115 103 103
114 103 103
114 102 102
114 102 102
113 102 102
113 102 102
113 101 101
112 101 101
112 101 101
112 101 101
111 100 100
111 100 100
111 100 100
110 99 99
110 99 99
110 99 99
110 99 99
109 98 98
109 98 98
109 98 98
108 97 97
108 97 97
108 97 97
107 97 97
107 96 96
107 96 96
106 96 96
106 95 95
137 123 123
137 123 123
136 123 123
136 123 123
136 122 122
136 122 122
136 122 122
136 122 122
136 122 122
135 122 122
135 122 122
135 122 122
135 121 121
135 121 121
135 121 121
134 121 121
134 121 121
134 121 121
134 120 120
134 120 120
134 120 120
133 120 120
133 120 120
133 120 120
133 119 119
132 119 119
15 151 75
16 162 81
16 165 82
16 166 83
16 165 82
16 164 82
16 161 80
15 158 79
15 155 77
15 151 75
14 147 73
14 142 71
13 137 68
13 132 66
12 127 63
12 121 60
11 115 57
10 108 54
10 101 50
9 94 47
8 87 43
7 79 39
7 70 35
6 61 30
5 52 26
4 41 20
3 30 15
2 25 12
2 25 12
2 25 12
2 25 12
2 25 12
123 111 111
123 111 111
123 111 111
123 110 110
122 110 110
122 110 110
122 109 109
121 109 109
121 109 109
121 109 109
120 108 108
120 108 108
120 108 108
119 107 107
119 107 107
119 107 107
118 107 107
118 106 106
118 106 106
118 106 106
117 105 105
117 105 105
117 105 105
116 105 105
116 104 104
116 104 104
115 104 104
115 103 103
115 103 103
114 103 103
114 103 103
114 102 102
113 102 102
113 102 102
113 101 101
112 101 101
112 101 101
112 101 101
112 100 100
111 100 100
111 100 100
111 100 100
142 127 127
142 127 127
141 127 127
141 127 127
141 127 127
141 127 127
141 127 127
141 127 127
140 126 126
140 126 126
140 126 126
140 126 126
140 126 126
140 126 126
139 125 125
139 125 125
139 125 125
139 125 125
139 125 125
138 124 124
138 124 124
138 124 124
138 124 124
137 124 124
137 123 123
137 123 123
14 140 70
15 154 77
15 158 79
15 159 79
15 159 79
15 157 78
15 155 77
15 152 76
14 149 74
14 145 72
14 141 70
13 137 68
13 132 66
12 126 63
12 121 60
11 115 57
10 109 54
10 102 51
9 96 48
8 88 44
8 81 40
7 73 36
6 64 32
5 55 27
4 46 23
3 35 17
2 25 12
2 25 12
2 25 12
2 25 12
2 25 12
2 25 12
128 115 115
127 114 114
127 114 114
127 114 114
126 114 114
126 113 113
126 113 113
125 113 113
125 113 113
125 112 112
124 112 112
124 112 112
124 111 111
123 111 111
123 111 111
123 111 111
123 110 110
122 110 110
122 110 110
122 109 109
121 109 109
121 109 109
121 109 109
120 108 108
120 108 108
120 108 108
119 107 107
119 107 107
119 107 107
118 107 107
118 106 106
118 106 106
117 106 106
117 105 105
117 105 105
116 105 105
116 105 105
116 104 104
116 104 104
115 104 104
115 103 103
115 103 103
146 131 131
146 131 131
146 131 131
146 131 131
145 131 131
145 131 131
145 130 130
145 130 130
145 130 130
144 130 130
144 130 130
144 130 130
144 129 129
144 129 129
143 129 129
143 129 129
143 129 129
143 128 128
142 128 128
142 128 128
142 128 128
142 128 128
142 127 127
141 127 127
141 127 127
141 127 127
141 126 126
14 145 72
15 150 75
15 152 76
15 152 76
15 151 75
14 149 74
14 146 73
14 143 71
13 139 69
13 135 67
13 130 65
12 126 63
12 120 60
11 115 57
10 109 54
10 103 51
9 96 48
8 89 44
8 82 41
7 75 37
6 67 33
5 58 29
4 49 24
3 39 19
2 29 14
2 25 12
2 25 12
2 25 12
2 25 12
2 25 12
132 118 118
131 118 118
131 118 118
131 117 117
130 117 117
130 117 117
130 117 117
129 116 116
129 116 116
129 116 116
128 115 115
128 115 115
128 115 115
127 115 115
127 114 114
127 114 114
126 114 114
126 113 113
126 113 113
125 113 113
125 113 113
125 112 112
125 112 112
124 112 112
124 111 111
124 111 111
123 111 111
123 111 111
123 110 110
122 110 110
122 110 110
122 109 109
121 109 109
121 109 109
121 109 109
120 108 108
120 108 108
120 108 108
119 107 107
119 107 107
119 107 107
119 107 107
118 106 106
150 135 135
150 135 135
149 134 134
149 134 134
149 134 134
149 134 134
149 134 134
148 134 134
148 133 133
148 133 133
148 133 133
148 133 133
147 133 133
147 132 132
147 132 132
147 132 132
146 132 132
146 131 131
146 131 131
146 131 131
145 131 131
145 131 131
145 130 130
145 130 130
144 130 130
144 130 130
144 129 129
13 133 66
14 141 70
14 144 72
14 144 72
14 143 71
14 141 70
13 139 69
13 136 68
13 132 66
12 128 64
12 124 62
11 119 59
11 114 57
10 108 54
10 103 51
9 96 48
9 90 45
8 83 41
7 76 38
6 68 34
6 60 30
5 51 25
4 42 21
3 32 16
2 25 12
2 25 12
2 25 12
2 25 12
2 25 12
2 25 12
135 121 121
134 121 121
134 121 121
134 120 120
133 120 120
133 120 120
133 119 119
132 119 119
132 119 119
132 119 119
132 118 118
131 118 118
131 118 118
131 117 117
130 117 117
130 117 117
130 117 117
129 116 116
129 116 116
129 116 116
128 115 115
128 115 115
128 115 115
127 115 115
127 114 114
127 114 114
126 114 114
126 113 113
126 113 113
126 113 113
125 113 113
125 112 112
125 112 112
124 112 112
124 111 111
124 111 111
123 111 111
123 111 111
123 110 110
122 110 110
122 110 110
122 110 110
121 109 109
153 138 138
153 137 137
153 137 137
152 137 137
152 137 137
152 137 137
152 137 137
152 136 136
151 136 136
151 136 136
151 136 136
151 135 135
150 135 135
150 135 135
150 135 135
150 135 135
149 134 134
149 134 134
149 134 134
149 134 134
148 133 133
148 133 133
148 133 133
148 133 133
147 133 133
147 132 132
147 132 132
11 117 58
13 130 65
13 135 67
13 136 68
13 135 67
13 134 67
13 131 65
12 128 64
12 125 62
12 121 60
11 117 58
11 112 56
10 107 53
10 101 50
9 96 48
8 89 44
8 83 41
7 76 38
6 69 34
6 61 30
5 53 26
4 44 22
3 35 17
2 25 12
2 25 12
2 25 12
2 25 12
2 25 12
2 25 12
2 25 12
138 124 124
137 123 123
137 123 123
137 123 123
136 123 123
136 122 122
136 122 122
135 122 122
135 121 121
135 121 121
134 121 121
134 121 121
134 120 120
133 120 120
133 120 120
133 119 119
132 119 119
132 119 119
132 119 119
132 118 118
131 118 118
131 118 118
131 117 117
130 117 117
130 117 117
130 117 117
129 116 116
129 116 116
129 116 116
128 116 116
128 115 115
128 115 115
127 115 115
127 114 114
127 114 114
127 114 114
126 114 114
126 113 113
126 113 113
125 113 113
125 112 112
125 112 112
124 112 112
156 140 140
156 140 140
155 140 140
155 140 140
155 139 139
155 139 139
154 139 139
154 139 139
154 139 139
154 138 138
153 138 138
153 138 138
153 138 138
153 137 137
152 137 137
152 137 137
152 137 137
152 136 136
151 136 136
151 136 136
151 136 136
151 136 136
150 135 135
150 135 135
150 135 135
150 135 135
149 134 134
149 134 134
11 117 58
12 124 62
12 126 63
12 126 63
12 125 62
12 123 61
12 121 60
11 117 58
11 113 56
10 109 54
10 105 52
10 100 50
9 94 47
8 88 44
8 82 41
7 76 38
6 69 34
6 61 30
5 53 26
4 45 22
3 36 18
2 27 13
2 25 12
2 25 12
2 25 12
2 25 12
2 25 12
2 25 12
140 126 126
140 126 126
140 126 126
139 125 125
139 125 125
139 125 125
138 125 125
25 22 22
25 22 22
25 22 22
25 22 22
25 22 22
137 123 123
136 123 123
136 122 122
136 122 122
135 122 122
135 121 121
135 121 121
134 121 121
134 121 121
134 120 120
133 120 120
133 120 120
133 120 120
133 119 119
132 119 119
132 119 119
132 118 118
131 118 118
131 118 118
131 118 118
130 117 117
130 117 117
130 117 117
129 116 116
129 116 116
129 116 116
129 116 116
128 115 115
128 115 115
128 115 115
127 115 115
127 114 114
158 142 142
158 142 142
158 142 142
157 142 142
157 141 141
157 141 141
157 141 141
157 141 141
156 141 141
156 140 140
156 140 140
156 140 140
155 140 140
155 139 139
155 139 139
155 139 139
154 139 139
154 139 139
154 138 138
153 138 138
153 138 138
153 138 138
153 137 137
152 137 137
152 137 137
152 137 137
152 136 136
151 136 136
9 97 48
11 111 55
11 115 57
11 117 58
11 116 58
11 114 57
11 112 56
10 109 54
10 105 52
10 101 50
9 97 48
9 92 46
8 86 43
8 80 40
7 74 37
6 68 34
6 61 30
5 53 26
4 45 22
3 37 18
2 28 14
2 25 12
2 25 12
2 25 12
2 25 12
2 25 12
2 25 12
2 25 12
25 22 22
25 22 22
25 22 22
25 22 22
25 22 22
25 22 22
25 22 22
25 22 22
25 22 22
25 22 22
25 22 22
25 22 22
25 22 22
25 22 22
25 22 22
25 22 22
25 22 22
25 22 22
137 123 123
137 123 123
136 123 123
136 122 122
136 122 122
136 122 122
135 122 122
135 121 121
135 121 121
134 121 121
134 121 121
134 120 120
133 120 120
133 120 120
133 119 119
132 119 119
132 119 119
132 119 119
132 118 118
131 118 118
131 118 118
131 118 118
130 117 117
130 117 117
130 117 117
129 116 116
160 144 144
160 144 144
160 144 144
160 144 144
159 143 143
159 143 143
159 143 143
159 143 143
158 142 142
158 142 142
158 142 142
158 142 142
157 142 142
157 141 141
157 141 141
157 141 141
156 141 141
156 140 140
156 140 140
155 140 140
155 140 140
155 139 139
155 139 139
154 139 139
154 139 139
154 138 138
153 138 138
153 138 138
153 138 138
9 94 47
10 103 51
10 105 52
10 106 53
10 105 52
10 103 51
10 100 50
9 96 48
9 92 46
8 88 44
8 83 41
7 78 39
7 72 36
6 66 33
5 59 29
5 52 26
4 44 22
3 36 18
2 28 14
2 25 12
2 25 12
2 25 12
2 25 12
2 25 12
2 25 12
2 25 12
25 22 22
25 22 22
25 22 22
25 22 22
25 22 22
25 22 22
25 22 22
25 22 22
25 22 22
25 22 22
25 22 22
25 22 22
25 22 22
25 22 22
25 22 22
25 22 22
25 22 22
25 22 22
25 22 22
25 22 22
25 22 22
139 125 125
138 124 124
138 124 124
138 124 124
137 124 124
137 123 123
137 123 123
136 123 123
136 122 122
136 122 122
136 122 122
135 122 122
135 121 121
135 121 121
134 121 121
134 121 121
134 120 120
133 120 120
133 120 120
133 120 120
133 119 119
132 119 119
132 119 119
132 118 118
162 146 146
162 146 146
162 145 145
161 145 145
161 145 145
161 145 145
161 144 144
160 144 144
160 144 144
160 144 144
160 144 144
159 143 143
159 143 143
159 143 143
159 143 143
158 142 142
158 142 142
158 142 142
157 142 142
157 141 141
157 141 141
157 141 141
156 141 141
156 140 140
156 140 140
156 140 140
155 140 140
155 139 139
155 139 139
154 139 139
8 86 43
9 92 46
9 94 47
9 94 47
9 92 46
9 90 45
8 87 43
8 83 41
7 78 39
7 74 37
6 68 34
6 63 31
5 56 28
5 50 25
4 42 21
3 35 17
2 26 13
2 25 12
2 25 12
2 25 12
2 25 12
2 25 12
2 25 12
2 25 12
25 22 22
25 22 22
25 22 22
25 22 22
25 22 22
25 22 22
25 22 22
25 22 22
25 22 22
25 22 22
25 22 22
25 22 22
25 22 22
25 22 22
25 22 22
25 22 22
25 22 22
25 22 22
25 22 22
25 22 22
25 22 22
25 22 22
140 126 126
140 126 126
140 126 126
140 126 126
139 125 125
139 125 125
139 125 125
138 125 125
138 124 124
138 124 124
138 124 124
137 123 123
137 123 123
137 123 123
136 123 123
136 122 122
136 122 122
135 122 122
135 122 122
135 121 121
135 121 121
134 121 121
134 121 121
134 120 120
164 147 147
163 147 147
163 147 147
163 147 147
163 146 146
162 146 146
162 146 146
162 146 146
162 145 145
161 145 145
161 145 145
161 145 145
161 145 145
160 144 144
160 144 144
160 144 144
160 144 144
159 143 143
159 143 143
159 143 143
158 143 143
158 142 142
158 142 142
158 142 142
157 142 142
157 141 141
157 141 141
157 141 141
156 141 141
156 140 140
156 140 140
7 74 37
7 79 39
8 81 40
8 80 40
7 78 39
7 76 38
7 72 36
6 68 34
6 63 31
5 58 29
5 52 26
4 46 23
3 39 19
3 32 16
2 25 12
2 25 12
2 25 12
2 25 12
2 25 12
2 25 12
2 25 12
2 25 12
25 22 22
25 22 22
25 22 22
25 22 22
25 22 22
25 22 22
25 22 22
25 22 22
25 22 22
25 22 22
25 22 22
25 22 22
25 22 22
25 22 22
25 22 22
25 22 22
25 22 22
25 22 22
25 22 22
25 22 22
25 22 22
25 22 22
143 128 128
142 128 128
142 128 128
142 127 127
141 127 127
141 127 127
141 127 127
141 126 126
140 126 126
140 126 126
140 126 126
139 125 125
139 125 125
139 125 125
138 125 125
138 124 124
138 124 124
138 124 124
137 124 124
137 123 123
137 123 123
136 123 123
136 123 123
136 122 122
136 122 122
165 149 149
165 148 148
165 148 148
164 148 148
164 148 148
164 147 147
164 147 147
163 147 147
163 147 147
163 146 146
163 146 146
162 146 146
162 146 146
162 146 146
161 145 145
161 145 145
161 145 145
161 145 145
160 144 144
160 144 144
160 144 144
160 144 144
159 143 143
159 143 143
159 143 143
158 143 143
158 142 142
158 142 142
158 142 142
157 142 142
157 141 141
157 141 141
5 59 29
6 64 32
6 66 33
6 65 32
6 63 31
6 60 30
5 56 28
5 52 26
4 47 23
4 41 20
3 35 17
2 28 14
2 25 12
2 25 12
2 25 12
2 25 12
2 25 12
2 25 12
2 25 12
2 25 12
25 22 22
25 22 22
25 22 22
25 22 22
25 22 22
25 22 22
25 22 22
25 22 22
25 22 22
25 22 22
25 22 22
25 22 22
25 22 22
25 22 22
25 22 22
25 22 22
25 22 22
25 22 22
25 22 22
25 22 22
25 22 22
145 130 130
144 130 130
144 130 130
144 129 129
144 129 129
143 129 129
143 129 129
143 128 128
142 128 128
142 128 128
142 128 128
142 127 127
141 127 127
141 127 127
141 127 127
140 126 126
140 126 126
140 126 126
140 126 126
139 125 125
139 125 125
139 125 125
138 125 125
138 124 124
138 124 124
138 124 124
137 124 124
166 150 150
166 149 149
166 149 149
166 149 149
165 149 149
165 148 148
165 148 148
165 148 148
164 148 148
164 148 148
164 147 147
163 147 147
163 147 147
163 147 147
163 146 146
162 146 146
162 146 146
162 146 146
162 145 145
161 145 145
161 145 145
161 145 145
161 144 144
160 144 144
160 144 144
160 144 144
159 143 143
159 143 143
159 143 143
159 143 143
158 142 142
158 142 142
158 142 142
3 37 18
4 47 23
4 48 24
4 48 24
4 46 23
4 42 21
3 38 19
3 33 16
2 28 14
2 25 12
2 25 12
2 25 12
2 25 12
2 25 12
2 25 12
2 25 12
2 25 12
2 25 12
25 22 22
25 22 22
25 22 22
25 22 22
25 22 22
25 22 22
25 22 22
25 22 22
25 22 22
25 22 22
25 22 22
25 22 22
25 22 22
25 22 22
25 22 22
25 22 22
25 22 22
25 22 22
25 22 22
25 22 22
147 132 132
146 132 132
146 132 132
146 131 131
146 131 131
145 131 131
145 131 131
145 130 130
145 130 130
144 130 130
144 130 130
144 129 129
143 129 129
143 129 129
143 128 128
143 128 128
142 128 128
142 128 128
142 127 127
141 127 127
141 127 127
141 127 127
141 127 127
140 126 126
140 126 126
140 126 126
140 126 126
139 125 125
139 125 125
167 151 151
167 150 150
167 150 150
167 150 150
166 150 150
166 149 149
166 149 149
166 149 149
165 149 149
165 149 149
165 148 148
165 148 148
164 148 148
164 148 148
164 147 147
164 147 147
163 147 147
163 147 147
163 146 146
162 146 146
162 146 146
162 146 146
162 145 145
161 145 145
161 145 145
161 145 145
161 144 144
160 144 144
160 144 144
160 144 144
159 143 143
159 143 143
159 143 143
159 143 143
158 143 143
2 25 12
2 27 13
2 27 13
2 25 12
2 25 12
2 25 12
2 25 12
2 25 12
2 25 12
2 25 12
2 25 12
2 25 12
2 25 12
2 25 12
25 22 22
25 22 22
25 22 22
25 22 22
25 22 22
25 22 22
25 22 22
25 22 22
25 22 22
25 22 22
25 22 22
25 22 22
25 22 22
25 22 22
25 22 22
25 22 22
25 22 22
25 22 22
25 22 22
149 134 134
149 134 134
148 133 133
148 133 133
148 133 133
148 133 133
147 132 132
147 132 132
147 132 132
146 132 132
146 131 131
146 131 131
146 131 131
145 131 131
145 131 131
145 130 130
145 130 130
144 130 130
144 130 130
144 129 129
143 129 129
143 129 129
143 129 129
143 128 128
142 128 128
142 128 128
142 128 128
142 127 127
141 127 127
141 127 127
141 127 127
140 126 126
168 151 151
168 151 151
168 151 151
168 151 151
167 151 151
167 150 150
167 150 150
167 150 150
166 150 150
166 149 149
166 149 149
166 149 149
165 149 149
165 148 148
165 148 148
165 148 148
164 148 148
164 148 148
164 147 147
163 147 147
163 147 147
163 147 147
163 146 146
162 146 146
162 146 146
162 146 146
162 145 145
161 145 145
161 145 145
161 145 145
161 144 144
160 144 144
160 144 144
160 144 144
159 143 143
159 143 143
25 22 22
25 22 22
2 25 12
2 25 12
2 25 12
2 25 12
2 25 12
2 25 12
2 25 12
2 25 12
25 22 22
25 22 22
25 22 22
25 22 22
25 22 22
25 22 22
25 22 22
25 22 22
25 22 22
25 22 22
25 22 22
25 22 22
25 22 22
25 22 22
25 22 22
25 22 22
25 22 22
152 136 136
151 136 136
151 136 136
151 136 136
150 135 135
150 135 135
150 135 135
150 135 135
149 134 134
149 134 134
149 134 134
149 134 134
148 133 133
148 133 133
148 133 133
147 133 133
147 132 132
147 132 132
147 132 132
146 132 132
146 131 131
146 131 131
146 131 131
145 131 131
145 130 130
145 130 130
144 130 130
144 130 130
144 130 130
144 129 129
143 129 129
143 129 129
143 129 129
143 128 128
142 128 128
142 128 128
142 128 128
169 152 152
169 152 152
169 152 152
168 152 152
168 151 151
168 151 151
168 151 151
167 151 151
167 150 150
167 150 150
167 150 150
166 150 150
166 150 150
166 149 149
166 149 149
165 149 149
165 149 149
165 148 148
165 148 148
164 148 148
164 148 148
164 147 147
164 147 147
163 147 147
163 147 147
163 146 146
163 146 146
162 146 146
162 146 146
162 146 146
161 145 145
161 145 145
161 145 145
161 145 145
160 144 144
160 144 144
160 144 144
160 144 144
25 22 22
25 22 22
25 22 22
25 22 22
25 22 22
25 22 22
25 22 22
25 22 22
25 22 22
25 22 22
25 22 22
25 22 22
25 22 22
25 22 22
25 22 22
25 22 22
25 22 22
25 22 22
25 22 22
25 22 22
154 139 139
154 138 138
153 138 138
153 138 138
153 138 138
153 137 137
152 137 137
152 137 137
152 137 137
152 136 136
151 136 136
151 136 136
151 136 136
150 135 135
150 135 135
150 135 135
150 135 135
149 134 134
149 134 134
149 134 134
149 134 134
148 133 133
148 133 133
148 133 133
148 133 133
147 133 133
147 132 132
147 132 132
147 132 132
146 132 132
146 131 131
146 131 131
145 131 131
145 131 131
145 130 130
145 130 130
144 130 130
144 130 130
144 129 129
144 129 129
143 129 129
143 129 129
170 153 153
170 153 153
169 152 152
169 152 152
169 152 152
169 152 152
168 152 152
168 151 151
168 151 151
168 151 151
167 151 151
167 150 150
167 150 150
167 150 150
166 150 150
166 150 150
166 149 149
166 149 149
165 149 149
165 149 149
165 148 148
165 148 148
164 148 148
164 148 148
164 147 147
164 147 147
163 147 147
163 147 147
163 147 147
163 146 146
162 146 146
162 146 146
162 146 146
162 145 145
161 145 145
161 145 145
161 145 145
160 144 144
160 144 144
160 144 144
160 144 144
159 143 143
159 143 143
159 143 143
159 143 143
158 143 143
158 142 142
158 142 142
158 142 142
157 142 142
157 141 141
157 141 141
157 141 141
156 141 141
156 140 140
156 140 140
155 140 140
155 140 140
155 139 139
155 139 139
154 139 139
154 139 139
154 138 138
154 138 138
153 138 138
153 138 138
153 138 138
153 137 137
152 137 137
152 137 137
152 137 137
152 136 136
151 136 136
151 136 136
151 136 136
151 135 135
150 135 135
150 135 135
150 135 135
149 134 134
149 134 134
149 134 134
149 134 134
148 134 134
148 133 133
148 133 133
148 133 133
147 133 133
147 132 132
147 132 132
147 132 132
146 132 132
146 131 131
146 131 131
146 131 131
145 131 131
145 131 131
145 130 130
145 130 130
144 130 130
171 154 154
170 153 153
170 153 153
170 153 153
170 153 153
169 152 152
169 152 152
169 152 152
169 152 152
168 152 152
168 151 151
168 151 151
168 151 151
167 151 151
167 150 150
167 150 150
167 150 150
166 150 150
166 150 150
166 149 149
166 149 149
165 149 149
165 149 149
165 148 148
165 148 148
164 148 148
164 148 148
164 147 147
164 147 147
163 147 147
163 147 147
163 147 147
163 146 146
162 146 146
162 146 146
162 146 146
162 145 145
161 145 145
161 145 145
161 145 145
161 144 144
160 144 144
160 144 144
160 144 144
160 144 144
159 143 143
159 143 143
159 143 143
158 143 143
158 142 142
158 142 142
158 142 142
157 142 142
157 141 141
157 141 141
157 141 141
156 141 141
156 140 140
156 140 140
156 140 140
155 140 140
155 140 140
155 139 139
155 139 139
154 139 139
154 139 139
154 138 138
154 138 138
153 138 138
153 138 138
153 137 137
153 137 137
152 137 137
152 137 137
152 137 137
152 136 136
151 136 136
151 136 136
151 136 136
150 135 135
150 135 135
150 135 135
150 135 135
149 134 134
149 134 134
149 134 134
149 134 134
148 134 134
148 133 133
148 133 133
148 133 133
147 133 133
147 132 132
147 132 132
147 132 132
146 132 132
146 132 132
146 131 131
146 131 131
145 131 131
171 154 154
171 154 154
171 154 154
171 153 153
170 153 153
170 153 153
170 153 153
170 153 153
169 152 152
169 152 152
169 152 152
169 152 152
168 151 151
168 151 151
168 151 151
168 151 151
167 151 151
167 150 150
167 150 150
167 150 150
166 150 150
166 149 149
166 149 149
166 149 149
165 149 149
165 149 149
165 148 148
165 148 148
164 148 148
164 148 148
164 147 147
164 147 147
163 147 147
163 147 147
163 146 146
163 146 146
162 146 146
162 146 146
162 146 146
162 145 145
161 145 145
161 145 145
161 145 145
161 144 144
160 144 144
160 144 144
160 144 144
160 144 144
159 143 143
159 143 143
159 143 143
159 143 143
158 142 142
158 142 142
158 142 142
158 142 142
157 141 141
157 141 141
157 141 141
156 141 141
156 141 141
156 140 140
156 140 140
155 140 140
155 140 140
155 139 139
155 139 139
154 139 139
154 139 139
154 139 139
154 138 138
153 138 138
153 138 138
153 138 138
153 137 137
152 137 137
152 137 137
152 137 137
152 136 136
151 136 136
151 136 136
151 136 136
151 136 136
150 135 135
150 135 135
150 135 135
150 135 135
149 134 134
149 134 134
149 134 134
149 134 134
148 134 134
148 133 133
148 133 133
148 133 133
148 133 133
147 132 132
147 132 132
147 132 132
147 132 132
172 155 155
172 154 154
171 154 154
171 154 154
171 154 154
171 154 154
170 153 153
170 153 153
170 153 153
170 153 153
169 152 152
169 152 152
169 152 152
169 152 152
168 152 152
168 151 151
168 151 151
168 151 151
167 151 151
167 150 150
167 150 150
167 150 150
166 150 150
166 150 150
166 149 149
166 149 149
165 149 149
165 149 149
165 148 148
165 148 148
165 148 148
164 148 148
164 148 148
164 147 147
164 147 147
163 147 147
163 147 147
163 146 146
163 146 146
162 146 146
162 146 146
162 146 146
162 145 145
161 145 145
161 145 145
161 145 145
161 144 144
160 144 144
160 144 144
160 144 144
160 144 144
159 143 143
159 143 143
159 143 143
159 143 143
158 142 142
158 142 142
158 142 142
158 142 142
157 142 142
157 141 141
157 141 141
157 141 141
156 141 141
156 140 140
156 140 140
156 140 140
155 140 140
155 140 140
155 139 139
155 139 139
154 139 139
154 139 139
154 138 138
154 138 138
153 138 138
153 138 138
153 138 138
153 137 137
152 137 137
152 137 137
152 137 137
152 136 136
151 136 136
151 136 136
151 136 136
151 136 136
150 135 135
150 135 135
150 135 135
150 135 135
149 134 134
149 134 134
149 134 134
149 134 134
148 134 134
148 133 133
148 133 133
148 133 133
148 133 133
172 155 155
172 155 155
172 155 155
172 154 154
171 154 154
171 154 154
171 154 154
171 154 154
170 153 153
170 153 153
170 153 153
170 153 153
169 152 152
169 152 152
169 152 152
169 152 152
169 152 152
168 151 151
168 151 151
168 151 151
168 151 151
167 151 151
167 150 150
167 150 150
167 150 150
166 150 150
166 149 149
166 149 149
166 149 149
165 149 149
165 149 149
165 148 148
165 148 148
164 148 148
164 148 148
164 147 147
164 147 147
163 147 147
163 147 147
163 147 147
163 146 146
162 146 146
162 146 146
162 146 146
162 145 145
161 145 145
161 145 145
161 145 145
161 145 145
160 144 144
160 144 144
160 144 144
160 144 144
159 143 143
159 143 143
159 143 143
159 143 143
159 143 143
158 142 142
158 142 142
158 142 142
158 142 142
157 142 142
157 141 141
157 141 141
157 141 141
156 141 141
156 140 140
156 140 140
156 140 140
155 140 140
155 140 140
155 139 139
155 139 139
154 139 139
154 139 139
154 138 138
154 138 138
153 138 138
153 138 138
153 138 138
153 137 137
152 137 137
152 137 137
152 137 137
152 137 137
152 136 136
151 136 136
151 136 136
151 136 136
151 135 135
150 135 135
150 135 135
150 135 135
150 135 135
149 134 134
149 134 134
149 134 134
149 134 134
148 134 134
173 155 155
173 155 155
172 155 155
172 155 155
172 155 155
172 154 154
171 154 154
171 154 154
171 154 154
171 154 154
170 153 153
170 153 153
170 153 153
170 153 153
169 152 152
169 152 152
169 152 152
169 152 152
169 152 152
168 151 151
168 151 151
168 151 151
168 151 151
167 151 151
167 150 150
167 150 150
167 150 150
166 150 150
166 149 149
166 149 149
166 149 149
165 149 149
165 149 149
165 148 148
165 148 148
164 148 148
164 148 148
164 148 148
164 147 147
164 147 147
163 147 147
163 147 147
163 146 146
163 146 146
162 146 146
162 146 146
162 146 146
162 145 145
161 145 145
161 145 145
161 145 145
161 145 145
160 144 144
160 144 144
160 144 144
160 144 144
159 143 143
159 143 143
159 143 143
159 143 143
158 143 143
158 142 142
158 142 142
158 142 142
158 142 142
157 142 142
157 141 141
157 141 141
157 141 141
156 141 141
156 140 140
156 140 140
156 140 140
155 140 140
155 140 140
155 139 139
155 139 139
154 139 139
154 139 139
154 139 139
154 138 138
154 138 138
153 138 138
153 138 138
153 137 137
153 137 137
152 137 137
152 137 137
152 137 137
152 136 136
151 136 136
151 136 136
151 136 136
151 136 136
151 135 135
150 135 135
150 135 135
150 135 135
150 135 135
149 134 134
173 156 156
173 156 156
173 155 155
172 155 155
172 155 155
172 155 155
172 155 155
172 154 154
171 154 154
171 154 154
171 154 154
171 154 154
170 153 153
170 153 153
170 153 153
170 153 153
169 152 152
169 152 152
169 152 152
169 152 152
169 152 152
168 151 151
168 151 151
168 151 151
168 151 151
167 151 151
167 150 150
167 150 150
167 150 150
166 150 150
166 150 150
166 149 149
166 149 149
166 149 149
165 149 149
165 148 148
165 148 148
165 148 148
164 148 148
164 148 148
164 147 147
164 147 147
163 147 147
163 147 147
163 147 147
163 146 146
162 146 146
162 146 146
162 146 146
162 146 146
162 145 145
161 145 145
161 145 145
161 145 145
161 144 144
160 144 144
160 144 144
160 144 144
160 144 144
159 143 143
159 143 143
159 143 143
159 143 143
158 143 143
158 142 142
158 142 142
158 142 142
158 142 142
157 142 142
157 141 141
157 141 141
157 141 141
156 141 141
156 140 140
156 140 140
156 140 140
155 140 140
155 140 140
155 139 139
155 139 139
155 139 139
154 139 139
154 139 139
154 138 138
154 138 138
153 138 138
153 138 138
153 138 138
153 137 137
152 137 137
152 137 137
152 137 137
152 137 137
152 136 136
151 136 136
151 136 136
151 136 136
151 136 136
150 135 135
150 135 135
174 156 156
173 156 156
173 156 156
173 156 156
173 155 155
172 155 155
172 155 155
172 155 155
172 155 155
172 154 154
171 154 154
171 154 154
171 154 154
171 153 153
170 153 153
170 153 153
170 153 153
170 153 153
169 152 152
169 152 152
169 152 152
169 152 152
169 152 152
168 151 151
168 151 151
168 151 151
168 151 151
167 151 151
167 150 150
167 150 150
167 150 150
166 150 150
166 150 150
166 149 149
166 149 149
166 149 149
165 149 149
165 149 149
165 148 148
165 148 148
164 148 148
164 148 148
164 147 147
164 147 147
163 147 147
163 147 147
163 147 147
163 146 146
163 146 146
162 146 146
162 146 146
162 146 146
162 145 145
161 145 145
161 145 145
161 145 145
161 145 145
160 144 144
160 144 144
160 144 144
160 144 144
160 144 144
159 143 143
159 143 143
159 143 143
159 143 143
158 143 143
158 142 142
158 142 142
158 142 142
157 142 142
157 141 141
157 141 141
157 141 141
157 141 141
156 141 141
156 140 140
156 140 140
156 140 140
155 140 140
155 140 140
155 139 139
155 139 139
155 139 139
154 139 139
154 139 139
154 138 138
154 138 138
153 138 138
153 138 138
153 138 138
153 137 137
153 137 137
152 137 137
152 137 137
152 137 137
152 136 136
151 136 136
151 136 136
151 136 136
174 156 156
174 156 156
173 156 156
173 156 156
173 156 156
173 155 155
173 155 155
172 155 155
172 155 155
172 155 155
172 154 154
171 154 154
171 154 154
171 154 154
171 154 154
171 153 153
170 153 153
170 153 153
170 153 153
170 153 153
169 152 152
169 152 152
169 152 152
169 152 152
169 152 152
168 151 151
168 151 151
168 151 151
168 151 151
167 151 151
167 150 150
167 150 150
167 150 150
166 150 150
166 150 150
166 149 149
166 149 149
166 149 149
165 149 149
165 149 149
165 148 148
165 148 148
164 148 148
164 148 148
164 148 148
164 147 147
164 147 147
163 147 147
163 147 147
163 147 147
163 146 146
162 146 146
162 146 146
162 146 146
162 145 145
161 145 145
161 145 145
161 145 145
161 145 145
161 144 144
160 144 144
160 144 144
160 144 144
160 144 144
159 143 143
159 143 143
159 143 143
159 143 143
159 143 143
158 142 142
158 142 142
158 142 142
158 142 142
157 142 142
157 141 141
157 141 141
157 141 141
157 141 141
156 141 141
156 140 140
156 140 140
156 140 140
155 140 140
155 140 140
155 139 139
155 139 139
155 139 139
154 139 139
154 139 139
154 138 138
154 138 138
153 138 138
153 138 138
153 138 138
153 137 137
153 137 137
152 137 137
152 137 137
152 137 137
152 137 137
